<svg version='1.1' baseProfile='full' xmlns='http://www.w3.org/2000/svg' width='2630.326549134594' height='241.74685665046908'><g transform='translate(5, 5)'><g transform='scale(0.3887561501747777) translate(152.52459716796875, -75)'><g><g><polyline points="73.1833007175473,461.3114754098361 90.1833007175473,461.3114754098361 107.1833007175473,461.3114754098361 " style="fill: none; stroke: black;"></polyline><g transform="translate(88.1833007175473, 466.3114754098361)"><text text-anchor="start" y="3" transform="rotate(90)" font-size="12">240x320</text></g></g><g transform="translate(-19, 466.3114754098361)"><text text-anchor="start" y="3" transform="rotate(90)" font-size="12">240x320</text></g></g><g><g><polyline points="180.3666014350946,461.3114754098361 197.3666014350946,461.3114754098361 214.3666014350946,461.3114754098361 " style="fill: none; stroke: black;"></polyline><g transform="translate(195.3666014350946, 466.3114754098361)"><text text-anchor="start" y="3" transform="rotate(90)" font-size="12">240x320</text></g></g></g><g><g><polyline points="287.5499021526419,461.3114754098361 304.5499021526419,461.3114754098361 321.54990215264183,461.3114754098361 " style="fill: none; stroke: black;"></polyline><g transform="translate(302.5499021526419, 466.3114754098361)"><text text-anchor="start" y="3" transform="rotate(90)" font-size="12">240x320</text></g></g></g><g><g><polyline points="394.7332028701892,461.3114754098361 411.7332028701892,461.3114754098361 428.7332028701892,461.3114754098361 " style="fill: none; stroke: black;"></polyline><g transform="translate(409.7332028701892, 466.3114754098361)"><text text-anchor="start" y="3" transform="rotate(90)" font-size="12">240x320</text></g></g></g><g><g><polyline points="609.0998043052839,356.6803278688525 626.0998043052839,356.6803278688525 643.0998043052839,356.6803278688525 " style="fill: none; stroke: black;"></polyline><g transform="translate(624.0998043052839, 361.6803278688525)"><text text-anchor="start" y="3" transform="rotate(90)" font-size="12">120x160</text></g></g></g><g><g><polyline points="719.6229615133727,356.6803278688525 736.6229615133726,356.6803278688525 753.6229615133725,356.6803278688525 " style="fill: none; stroke: black;"></polyline><g transform="translate(734.6229615133727, 361.6803278688525)"><text text-anchor="start" y="3" transform="rotate(90)" font-size="12">120x160</text></g></g></g><g><g><polyline points="830.1461187214613,356.6803278688525 847.1461187214613,356.6803278688525 864.1461187214613,356.6803278688525 " style="fill: none; stroke: black;"></polyline><g transform="translate(845.1461187214613, 361.6803278688525)"><text text-anchor="start" y="3" transform="rotate(90)" font-size="12">120x160</text></g></g></g><g><g><polyline points="940.6692759295502,356.6803278688525 957.66927592955,356.6803278688525 974.6692759295499,356.6803278688525 " style="fill: none; stroke: black;"></polyline><g transform="translate(955.6692759295502, 361.6803278688525)"><text text-anchor="start" y="3" transform="rotate(90)" font-size="12">120x160</text></g></g></g><g><g><polyline points="1051.1924331376388,356.6803278688525 1068.1924331376388,356.6803278688525 1085.1924331376388,356.6803278688525 " style="fill: none; stroke: black;"></polyline><g transform="translate(1066.1924331376388, 361.6803278688525)"><text text-anchor="start" y="3" transform="rotate(90)" font-size="12">120x160</text></g></g></g><g><g><polyline points="1272.2387475538162,263.8524590163935 1289.2387475538162,263.8524590163935 1306.2387475538162,263.8524590163935 " style="fill: none; stroke: black;"></polyline><g transform="translate(1287.2387475538162, 268.8524590163935)"><text text-anchor="start" y="3" transform="rotate(90)" font-size="12">60x80</text></g></g></g><g><g><polyline points="1389.4416177429875,263.8524590163935 1406.4416177429878,263.8524590163935 1423.441617742988,263.8524590163935 " style="fill: none; stroke: black;"></polyline><g transform="translate(1404.4416177429875, 268.8524590163935)"><text text-anchor="start" y="3" transform="rotate(90)" font-size="12">60x80</text></g></g></g><g><g><polyline points="1506.6444879321593,263.8524590163935 1523.6444879321593,263.8524590163935 1540.6444879321593,263.8524590163935 " style="fill: none; stroke: black;"></polyline><g transform="translate(1521.6444879321593, 268.8524590163935)"><text text-anchor="start" y="3" transform="rotate(90)" font-size="12">60x80</text></g></g></g><g><g><polyline points="1623.8473581213307,263.8524590163935 1640.847358121331,263.8524590163935 1657.8473581213311,263.8524590163935 " style="fill: none; stroke: black;"></polyline><g transform="translate(1638.8473581213307, 268.8524590163935)"><text text-anchor="start" y="3" transform="rotate(90)" font-size="12">60x80</text></g></g></g><g><g><polyline points="1741.0502283105025,263.8524590163935 1758.0502283105025,263.8524590163935 1775.0502283105025,263.8524590163935 " style="fill: none; stroke: black;"></polyline><g transform="translate(1756.0502283105025, 268.8524590163935)"><text text-anchor="start" y="3" transform="rotate(90)" font-size="12">60x80</text></g></g></g><g><g><polyline points="1975.4559686888456,176.92622950819674 1992.4559686888456,176.92622950819674 2009.4559686888456,176.92622950819674 " style="fill: none; stroke: black;"></polyline><g transform="translate(1990.4559686888456, 181.92622950819674)"><text text-anchor="start" y="3" transform="rotate(90)" font-size="12">30x40</text></g></g></g><g><g><polyline points="2106.018264840183,176.92622950819674 2123.018264840183,176.92622950819674 2140.018264840183,176.92622950819674 " style="fill: none; stroke: black;"></polyline><g transform="translate(2121.018264840183, 181.92622950819674)"><text text-anchor="start" y="3" transform="rotate(90)" font-size="12">30x40</text></g></g></g><g><g><polyline points="2236.58056099152,176.92622950819674 2253.58056099152,176.92622950819674 2270.58056099152,176.92622950819674 " style="fill: none; stroke: black;"></polyline><g transform="translate(2251.58056099152, 181.92622950819674)"><text text-anchor="start" y="3" transform="rotate(90)" font-size="12">30x40</text></g></g></g><g><g><polyline points="2367.1428571428573,176.92622950819674 2384.1428571428573,176.92622950819674 2401.1428571428573,176.92622950819674 " style="fill: none; stroke: black;"></polyline><g transform="translate(2382.1428571428573, 181.92622950819674)"><text text-anchor="start" y="3" transform="rotate(90)" font-size="12">30x40</text></g></g></g><g><g><polyline points="2497.7051532941946,176.92622950819674 2514.7051532941946,176.92622950819674 2531.7051532941946,176.92622950819674 " style="fill: none; stroke: black;"></polyline><g transform="translate(2512.7051532941946, 181.92622950819674)"><text text-anchor="start" y="3" transform="rotate(90)" font-size="12">30x40</text></g></g></g><g><g><polyline points="2758.829745596869,92.95081967213116 2775.829745596869,92.95081967213116 2792.8297455968695,92.95081967213116 " style="fill: none; stroke: black;"></polyline><g transform="translate(2773.829745596869, 97.95081967213116)"><text text-anchor="start" y="3" transform="rotate(90)" font-size="12">15x20</text></g></g></g><g><g><polyline points="2916.1108936725377,92.95081967213116 2933.1108936725377,92.95081967213116 2950.1108936725377,92.95081967213116 " style="fill: none; stroke: black;"></polyline><g transform="translate(2931.1108936725377, 97.95081967213116)"><text text-anchor="start" y="3" transform="rotate(90)" font-size="12">15x20</text></g></g></g><g><g><polyline points="3073.392041748206,92.95081967213116 3090.3920417482063,92.95081967213116 3107.392041748207,92.95081967213116 " style="fill: none; stroke: black;"></polyline><g transform="translate(3088.392041748206, 97.95081967213116)"><text text-anchor="start" y="3" transform="rotate(90)" font-size="12">15x20</text></g></g></g><g><g><polyline points="3230.673189823875,92.95081967213116 3247.673189823875,92.95081967213116 3264.673189823875,92.95081967213116 " style="fill: none; stroke: black;"></polyline><g transform="translate(3245.673189823875, 97.95081967213116)"><text text-anchor="start" y="3" transform="rotate(90)" font-size="12">15x20</text></g></g></g><g><g><polyline points="3387.954337899543,92.95081967213116 3404.9543378995436,92.95081967213116 3421.954337899544,92.95081967213116 " style="fill: none; stroke: black;"></polyline><g transform="translate(3402.954337899543, 97.95081967213116)"><text text-anchor="start" y="3" transform="rotate(90)" font-size="12">15x20</text></g></g></g><g><g><polyline points="3545.235485975212,92.95081967213116 3577.235485975212,92.95081967213116 " style="fill: none; stroke: black;"></polyline><g transform="translate(3560.235485975212, 97.95081967213116)"><text text-anchor="start" y="3" transform="rotate(90)" font-size="12">30x40</text></g></g></g><g><g><polyline points="3729.235485975212,176.92622950819674 3746.235485975212,176.92622950819674 3763.235485975212,176.92622950819674 " style="fill: none; stroke: black;"></polyline><g transform="translate(3744.235485975212, 181.92622950819674)"><text text-anchor="start" y="3" transform="rotate(90)" font-size="12">30x40</text></g></g></g><g><g><polyline points="3859.7977821265495,176.92622950819674 3876.7977821265495,176.92622950819674 3893.7977821265495,176.92622950819674 " style="fill: none; stroke: black;"></polyline><g transform="translate(3874.7977821265495, 181.92622950819674)"><text text-anchor="start" y="3" transform="rotate(90)" font-size="12">30x40</text></g></g></g><g><g><polyline points="3990.3600782778867,176.92622950819674 4007.3600782778867,176.92622950819674 4024.3600782778867,176.92622950819674 " style="fill: none; stroke: black;"></polyline><g transform="translate(4005.3600782778867, 181.92622950819674)"><text text-anchor="start" y="3" transform="rotate(90)" font-size="12">30x40</text></g></g></g><g><g><polyline points="4120.922374429224,176.92622950819674 4137.922374429224,176.92622950819674 4154.922374429225,176.92622950819674 " style="fill: none; stroke: black;"></polyline><g transform="translate(4135.922374429224, 181.92622950819674)"><text text-anchor="start" y="3" transform="rotate(90)" font-size="12">30x40</text></g></g></g><g><g><polyline points="4251.484670580561,176.92622950819674 4268.484670580561,176.92622950819674 4285.484670580561,176.92622950819674 " style="fill: none; stroke: black;"></polyline><g transform="translate(4266.484670580561, 181.92622950819674)"><text text-anchor="start" y="3" transform="rotate(90)" font-size="12">30x40</text></g></g></g><g><g><polyline points="4382.046966731898,176.92622950819674 4414.0469667318985,176.92622950819674 " style="fill: none; stroke: black;"></polyline><g transform="translate(4397.046966731898, 181.92622950819674)"><text text-anchor="start" y="3" transform="rotate(90)" font-size="12">60x80</text></g></g></g><g><g><polyline points="4525.968688845401,263.8524590163935 4542.968688845402,263.8524590163935 4559.968688845402,263.8524590163935 " style="fill: none; stroke: black;"></polyline><g transform="translate(4540.968688845401, 268.8524590163935)"><text text-anchor="start" y="3" transform="rotate(90)" font-size="12">60x80</text></g></g></g><g><g><polyline points="4643.171559034574,263.8524590163935 4660.171559034573,263.8524590163935 4677.171559034573,263.8524590163935 " style="fill: none; stroke: black;"></polyline><g transform="translate(4658.171559034574, 268.8524590163935)"><text text-anchor="start" y="3" transform="rotate(90)" font-size="12">60x80</text></g></g></g><g><g><polyline points="4760.374429223745,263.8524590163935 4777.374429223744,263.8524590163935 4794.374429223744,263.8524590163935 " style="fill: none; stroke: black;"></polyline><g transform="translate(4775.374429223745, 268.8524590163935)"><text text-anchor="start" y="3" transform="rotate(90)" font-size="12">60x80</text></g></g></g><g><g><polyline points="4877.577299412917,263.8524590163935 4894.577299412916,263.8524590163935 4911.577299412916,263.8524590163935 " style="fill: none; stroke: black;"></polyline><g transform="translate(4892.577299412917, 268.8524590163935)"><text text-anchor="start" y="3" transform="rotate(90)" font-size="12">60x80</text></g></g></g><g><g><polyline points="4994.780169602088,263.8524590163935 5011.780169602087,263.8524590163935 5028.780169602087,263.8524590163935 " style="fill: none; stroke: black;"></polyline><g transform="translate(5009.780169602088, 268.8524590163935)"><text text-anchor="start" y="3" transform="rotate(90)" font-size="12">60x80</text></g></g></g><g><g><polyline points="5111.983039791259,263.8524590163935 5143.983039791258,263.8524590163935 " style="fill: none; stroke: black;"></polyline><g transform="translate(5126.983039791259, 268.8524590163935)"><text text-anchor="start" y="3" transform="rotate(90)" font-size="12">120x160</text></g></g></g><g><g><polyline points="5235.865622961513,356.6803278688525 5252.865622961513,356.6803278688525 5269.865622961513,356.6803278688525 " style="fill: none; stroke: black;"></polyline><g transform="translate(5250.865622961513, 361.6803278688525)"><text text-anchor="start" y="3" transform="rotate(90)" font-size="12">120x160</text></g></g></g><g><g><polyline points="5346.388780169601,356.6803278688525 5363.388780169601,356.6803278688525 5380.388780169601,356.6803278688525 " style="fill: none; stroke: black;"></polyline><g transform="translate(5361.388780169601, 361.6803278688525)"><text text-anchor="start" y="3" transform="rotate(90)" font-size="12">120x160</text></g></g></g><g><g><polyline points="5456.911937377689,356.6803278688525 5473.911937377689,356.6803278688525 5490.911937377689,356.6803278688525 " style="fill: none; stroke: black;"></polyline><g transform="translate(5471.911937377689, 361.6803278688525)"><text text-anchor="start" y="3" transform="rotate(90)" font-size="12">120x160</text></g></g></g><g><g><polyline points="5567.435094585778,356.6803278688525 5584.435094585778,356.6803278688525 5601.435094585778,356.6803278688525 " style="fill: none; stroke: black;"></polyline><g transform="translate(5582.435094585778, 361.6803278688525)"><text text-anchor="start" y="3" transform="rotate(90)" font-size="12">120x160</text></g></g></g><g><g><polyline points="5677.958251793866,356.6803278688525 5694.958251793866,356.6803278688525 5711.958251793866,356.6803278688525 " style="fill: none; stroke: black;"></polyline><g transform="translate(5692.958251793866, 361.6803278688525)"><text text-anchor="start" y="3" transform="rotate(90)" font-size="12">120x160</text></g></g></g><g><g><polyline points="5788.4814090019545,356.6803278688525 5820.4814090019545,356.6803278688525 " style="fill: none; stroke: black;"></polyline><g transform="translate(5803.4814090019545, 361.6803278688525)"><text text-anchor="start" y="3" transform="rotate(90)" font-size="12">240x320</text></g></g></g><g><g><polyline points="5902.344422700585,461.3114754098361 5919.344422700585,461.3114754098361 5936.344422700585,461.3114754098361 " style="fill: none; stroke: black;"></polyline><g transform="translate(5917.344422700585, 466.3114754098361)"><text text-anchor="start" y="3" transform="rotate(90)" font-size="12">240x320</text></g></g></g><g><g><polyline points="6009.527723418131,461.3114754098361 6026.527723418132,461.3114754098361 6043.527723418132,461.3114754098361 " style="fill: none; stroke: black;"></polyline><g transform="translate(6024.527723418131, 466.3114754098361)"><text text-anchor="start" y="3" transform="rotate(90)" font-size="12">240x320</text></g></g></g><g><g><polyline points="6116.711024135679,461.3114754098361 6133.7110241356795,461.3114754098361 6150.7110241356795,461.3114754098361 " style="fill: none; stroke: black;"></polyline><g transform="translate(6131.711024135679, 466.3114754098361)"><text text-anchor="start" y="3" transform="rotate(90)" font-size="12">240x320</text></g></g></g><g><g><polyline points="6223.894324853226,461.3114754098361 6240.894324853227,461.3114754098361 6257.894324853227,461.3114754098361 " style="fill: none; stroke: black;"></polyline><g transform="translate(6238.894324853226, 466.3114754098361)"><text text-anchor="start" y="3" transform="rotate(90)" font-size="12">240x320</text></g></g></g><g><g><polyline points="6331.077625570773,461.3114754098361 6348.077625570774,461.3114754098361 6365.077625570774,461.3114754098361 " style="fill: none; stroke: black;"></polyline><g transform="translate(6346.077625570773, 466.3114754098361)"><text text-anchor="start" y="3" transform="rotate(90)" font-size="12">240x320</text></g></g></g><g><g transform="translate(6450.234181343768, 466.3114754098361)"><text text-anchor="start" y="3" transform="rotate(90)" font-size="12">240x320</text></g></g><g><g><polyline points="503.91650358773654,356.6803278688525 535.9165035877365,356.6803278688525 " style="fill: none; stroke: black;"></polyline><g transform="translate(516.9165035877365, 361.6803278688525)"><text text-anchor="start" y="3" transform="rotate(90)" font-size="12">240x320</text></g></g><g><polyline points="503.91650358773654,575.2868852459017 572.5081539465102,575.2868852459017 626.0998043052839,575.2868852459017 681.3613829093283,575.2868852459017 736.6229615133726,575.2868852459017 791.8845401174169,575.2868852459017 847.1461187214613,575.2868852459017 902.4076973255058,575.2868852459017 957.66927592955,575.2868852459017 1012.9308545335944,575.2868852459017 1068.1924331376388,575.2868852459017 1123.4540117416832,575.2868852459017 1178.7155903457274,575.2868852459017 1233.9771689497718,575.2868852459017 1289.2387475538162,575.2868852459017 1347.8401826484019,575.2868852459017 1406.4416177429878,575.2868852459017 1465.0430528375737,575.2868852459017 1523.6444879321593,575.2868852459017 1582.245923026745,575.2868852459017 1640.847358121331,575.2868852459017 1699.4487932159168,575.2868852459017 1758.0502283105025,575.2868852459017 1816.6516634050881,575.2868852459017 1875.253098499674,575.2868852459017 1933.85453359426,575.2868852459017 1992.4559686888456,575.2868852459017 2057.737116764514,575.2868852459017 2123.018264840183,575.2868852459017 2188.2994129158515,575.2868852459017 2253.58056099152,575.2868852459017 2318.8617090671887,575.2868852459017 2384.1428571428573,575.2868852459017 2449.424005218526,575.2868852459017 2514.7051532941946,575.2868852459017 2579.986301369863,575.2868852459017 2645.267449445532,575.2868852459017 2710.5485975212005,575.2868852459017 2775.829745596869,575.2868852459017 2854.4703196347036,575.2868852459017 2933.1108936725377,575.2868852459017 3011.751467710372,575.2868852459017 3090.3920417482063,575.2868852459017 3169.032615786041,575.2868852459017 3247.673189823875,575.2868852459017 3326.313763861709,575.2868852459017 3404.9543378995436,575.2868852459017 3483.594911937378,575.2868852459017 3562.235485975212,575.2868852459017 3654.235485975212,575.2868852459017 3746.235485975212,575.2868852459017 3811.516634050881,575.2868852459017 3876.7977821265495,575.2868852459017 3942.078930202218,575.2868852459017 4007.3600782778867,575.2868852459017 4072.6412263535553,575.2868852459017 4137.922374429224,575.2868852459017 4203.203522504893,575.2868852459017 4268.484670580561,575.2868852459017 4333.765818656229,575.2868852459017 4399.0469667318985,575.2868852459017 4471.00782778865,575.2868852459017 4542.968688845402,575.2868852459017 4601.570123939988,575.2868852459017 4660.171559034573,575.2868852459017 4718.772994129159,575.2868852459017 4777.374429223744,575.2868852459017 4835.97586431833,575.2868852459017 4894.577299412916,575.2868852459017 4953.178734507502,575.2868852459017 5011.780169602087,575.2868852459017 5070.381604696673,575.2868852459017 5128.983039791258,575.2868852459017 5190.924331376385,575.2868852459017 5252.865622961513,575.2868852459017 5308.127201565557,575.2868852459017 5363.388780169601,575.2868852459017 5418.650358773645,575.2868852459017 5473.911937377689,575.2868852459017 5529.1735159817335,575.2868852459017 5584.435094585778,575.2868852459017 5639.696673189822,575.2868852459017 5694.958251793866,575.2868852459017 5750.21983039791,575.2868852459017 5820.4814090019545,575.2868852459017 " style="fill: none; stroke: black;"></polyline><g transform="translate(516.9165035877365, 580.2868852459017)"><text text-anchor="start" y="3" transform="rotate(90)" font-size="12">240x320</text></g></g></g><g><g><polyline points="1163.7155903457274,263.8524590163935 1195.7155903457274,263.8524590163935 " style="fill: none; stroke: black;"></polyline><g transform="translate(1176.7155903457276, 268.8524590163935)"><text text-anchor="start" y="3" transform="rotate(90)" font-size="12">120x160</text></g></g><g><polyline points="1163.7155903457274,460.65573770491807 1233.9771689497718,460.65573770491807 1289.2387475538162,460.65573770491807 1347.8401826484019,460.65573770491807 1406.4416177429878,460.65573770491807 1465.0430528375737,460.65573770491807 1523.6444879321593,460.65573770491807 1582.245923026745,460.65573770491807 1640.847358121331,460.65573770491807 1699.4487932159168,460.65573770491807 1758.0502283105025,460.65573770491807 1816.6516634050881,460.65573770491807 1875.253098499674,460.65573770491807 1933.85453359426,460.65573770491807 1992.4559686888456,460.65573770491807 2057.737116764514,460.65573770491807 2123.018264840183,460.65573770491807 2188.2994129158515,460.65573770491807 2253.58056099152,460.65573770491807 2318.8617090671887,460.65573770491807 2384.1428571428573,460.65573770491807 2449.424005218526,460.65573770491807 2514.7051532941946,460.65573770491807 2579.986301369863,460.65573770491807 2645.267449445532,460.65573770491807 2710.5485975212005,460.65573770491807 2775.829745596869,460.65573770491807 2854.4703196347036,460.65573770491807 2933.1108936725377,460.65573770491807 3011.751467710372,460.65573770491807 3090.3920417482063,460.65573770491807 3169.032615786041,460.65573770491807 3247.673189823875,460.65573770491807 3326.313763861709,460.65573770491807 3404.9543378995436,460.65573770491807 3483.594911937378,460.65573770491807 3562.235485975212,460.65573770491807 3654.235485975212,460.65573770491807 3746.235485975212,460.65573770491807 3811.516634050881,460.65573770491807 3876.7977821265495,460.65573770491807 3942.078930202218,460.65573770491807 4007.3600782778867,460.65573770491807 4072.6412263535553,460.65573770491807 4137.922374429224,460.65573770491807 4203.203522504893,460.65573770491807 4268.484670580561,460.65573770491807 4333.765818656229,460.65573770491807 4399.0469667318985,460.65573770491807 4471.00782778865,460.65573770491807 4542.968688845402,460.65573770491807 4601.570123939988,460.65573770491807 4660.171559034573,460.65573770491807 4718.772994129159,460.65573770491807 4777.374429223744,460.65573770491807 4835.97586431833,460.65573770491807 4894.577299412916,460.65573770491807 4953.178734507502,460.65573770491807 5011.780169602087,460.65573770491807 5070.381604696673,460.65573770491807 5143.983039791258,460.65573770491807 " style="fill: none; stroke: black;"></polyline><g transform="translate(1176.7155903457276, 465.65573770491807)"><text text-anchor="start" y="3" transform="rotate(90)" font-size="12">120x160</text></g></g></g><g><g><polyline points="1860.253098499674,176.92622950819674 1892.2530984996743,176.92622950819674 " style="fill: none; stroke: black;"></polyline><g transform="translate(1873.2530984996738, 181.92622950819674)"><text text-anchor="start" y="3" transform="rotate(90)" font-size="12">60x80</text></g></g><g><polyline points="1860.253098499674,357.827868852459 1933.85453359426,357.827868852459 1992.4559686888456,357.827868852459 2057.737116764514,357.827868852459 2123.018264840183,357.827868852459 2188.2994129158515,357.827868852459 2253.58056099152,357.827868852459 2318.8617090671887,357.827868852459 2384.1428571428573,357.827868852459 2449.424005218526,357.827868852459 2514.7051532941946,357.827868852459 2579.986301369863,357.827868852459 2645.267449445532,357.827868852459 2710.5485975212005,357.827868852459 2775.829745596869,357.827868852459 2854.4703196347036,357.827868852459 2933.1108936725377,357.827868852459 3011.751467710372,357.827868852459 3090.3920417482063,357.827868852459 3169.032615786041,357.827868852459 3247.673189823875,357.827868852459 3326.313763861709,357.827868852459 3404.9543378995436,357.827868852459 3483.594911937378,357.827868852459 3562.235485975212,357.827868852459 3654.235485975212,357.827868852459 3746.235485975212,357.827868852459 3811.516634050881,357.827868852459 3876.7977821265495,357.827868852459 3942.078930202218,357.827868852459 4007.3600782778867,357.827868852459 4072.6412263535553,357.827868852459 4137.922374429224,357.827868852459 4203.203522504893,357.827868852459 4268.484670580561,357.827868852459 4333.765818656229,357.827868852459 4414.0469667318985,357.827868852459 " style="fill: none; stroke: black;"></polyline><g transform="translate(1873.2530984996738, 362.827868852459)"><text text-anchor="start" y="3" transform="rotate(90)" font-size="12">60x80</text></g></g></g><g><g><polyline points="2630.267449445532,92.95081967213116 2662.267449445532,92.95081967213116 " style="fill: none; stroke: black;"></polyline><g transform="translate(2643.267449445532, 97.95081967213116)"><text text-anchor="start" y="3" transform="rotate(90)" font-size="12">30x40</text></g></g><g><polyline points="2630.267449445532,260.9016393442623 2710.5485975212005,260.9016393442623 2775.829745596869,260.9016393442623 2854.4703196347036,260.9016393442623 2933.1108936725377,260.9016393442623 3011.751467710372,260.9016393442623 3090.3920417482063,260.9016393442623 3169.032615786041,260.9016393442623 3247.673189823875,260.9016393442623 3326.313763861709,260.9016393442623 3404.9543378995436,260.9016393442623 3483.594911937378,260.9016393442623 3577.235485975212,260.9016393442623 " style="fill: none; stroke: black;"></polyline><g transform="translate(2643.267449445532, 265.9016393442623)"><text text-anchor="start" y="3" transform="rotate(90)" font-size="12">30x40</text></g></g></g><g><g transform="translate(0, 386.3114754098361)"><path d="M 0 15.737704918032783 L 73.1833007175473 15.737704918032783 V 134.2622950819672 L 0 134.2622950819672 V 15.737704918032783 z" style="fill: rgb(63, 81, 181); stroke: rgb(50, 64, 143); stroke-width: 4; stroke-linejoin: round;"></path><g></g><text text-anchor="middle" x="36.59165035877365" y="151.2622950819672" font-size="12">64</text><text text-anchor="middle" x="36.59165035877365" y="168.2622950819672" font-size="12">Conv</text></g><g transform="translate(-152.52459016393442, 402.04918032786884)"><rect x="0" y="0" width="118.52459016393443" height="118.52459016393443" style="stroke: lightgrey; stroke-linejoin: round; stroke-width: 2; fill-opacity: 0; stroke-dasharray: 4;"></rect></g></g><g><g transform="translate(107.1833007175473, 386.3114754098361)"><path d="M 0 15.737704918032783 L 73.1833007175473 15.737704918032783 V 134.2622950819672 L 0 134.2622950819672 V 15.737704918032783 z" style="fill: rgb(63, 81, 181); stroke: rgb(50, 64, 143); stroke-width: 4; stroke-linejoin: round;"></path><g></g><text text-anchor="middle" x="36.59165035877365" y="151.2622950819672" font-size="12">64</text><text text-anchor="middle" x="36.59165035877365" y="168.2622950819672" font-size="12">BatchNormalization</text></g></g><g><g transform="translate(214.3666014350946, 386.3114754098361)"><path d="M 0 15.737704918032783 L 73.1833007175473 15.737704918032783 V 134.2622950819672 L 0 134.2622950819672 V 15.737704918032783 z" style="fill: rgb(63, 81, 181); stroke: rgb(50, 64, 143); stroke-width: 4; stroke-linejoin: round;"></path><g></g><text text-anchor="middle" x="36.59165035877365" y="151.2622950819672" font-size="12">64</text><text text-anchor="middle" x="36.59165035877365" y="168.2622950819672" font-size="12">Conv</text></g></g><g><g transform="translate(321.54990215264183, 386.3114754098361)"><path d="M 0 15.737704918032783 L 73.1833007175473 15.737704918032783 V 134.2622950819672 L 0 134.2622950819672 V 15.737704918032783 z" style="fill: rgb(63, 81, 181); stroke: rgb(50, 64, 143); stroke-width: 4; stroke-linejoin: round;"></path><g></g><text text-anchor="middle" x="36.59165035877365" y="151.2622950819672" font-size="12">64</text><text text-anchor="middle" x="36.59165035877365" y="168.2622950819672" font-size="12">BatchNormalization</text></g></g><g><g transform="translate(535.9165035877365, 281.6803278688525)"><path d="M 0 15.737704918032783 L 73.1833007175473 39.34426229508197 V 110.65573770491804 L 0 134.2622950819672 V 15.737704918032783 z" style="fill: rgb(33, 150, 243); stroke: rgb(12, 124, 213); stroke-width: 4; stroke-linejoin: round;"></path><g></g><text text-anchor="middle" x="36.59165035877365" y="151.2622950819672" font-size="12">64</text><text text-anchor="middle" x="36.59165035877365" y="168.2622950819672" font-size="12">MaxPool</text></g></g><g><g transform="translate(643.0998043052839, 281.6803278688525)"><path d="M 0 39.34426229508197 L 76.52315720808872 39.34426229508197 V 110.65573770491804 L 0 110.65573770491804 V 39.34426229508197 z" style="fill: rgb(63, 81, 181); stroke: rgb(50, 64, 143); stroke-width: 4; stroke-linejoin: round;"></path><g></g><text text-anchor="middle" x="38.26157860404436" y="127.65573770491804" font-size="12">128</text><text text-anchor="middle" x="38.26157860404436" y="144.65573770491804" font-size="12">Conv</text></g></g><g><g transform="translate(753.6229615133725, 281.6803278688525)"><path d="M 0 39.34426229508197 L 76.52315720808872 39.34426229508197 V 110.65573770491804 L 0 110.65573770491804 V 39.34426229508197 z" style="fill: rgb(63, 81, 181); stroke: rgb(50, 64, 143); stroke-width: 4; stroke-linejoin: round;"></path><g></g><text text-anchor="middle" x="38.26157860404436" y="127.65573770491804" font-size="12">128</text><text text-anchor="middle" x="38.26157860404436" y="144.65573770491804" font-size="12">BatchNormalization</text></g></g><g><g transform="translate(864.1461187214613, 281.6803278688525)"><path d="M 0 39.34426229508197 L 76.52315720808872 39.34426229508197 V 110.65573770491804 L 0 110.65573770491804 V 39.34426229508197 z" style="fill: rgb(63, 81, 181); stroke: rgb(50, 64, 143); stroke-width: 4; stroke-linejoin: round;"></path><g></g><text text-anchor="middle" x="38.26157860404436" y="127.65573770491804" font-size="12">128</text><text text-anchor="middle" x="38.26157860404436" y="144.65573770491804" font-size="12">Conv</text></g></g><g><g transform="translate(974.6692759295499, 281.6803278688525)"><path d="M 0 39.34426229508197 L 76.52315720808872 39.34426229508197 V 110.65573770491804 L 0 110.65573770491804 V 39.34426229508197 z" style="fill: rgb(63, 81, 181); stroke: rgb(50, 64, 143); stroke-width: 4; stroke-linejoin: round;"></path><g></g><text text-anchor="middle" x="38.26157860404436" y="127.65573770491804" font-size="12">128</text><text text-anchor="middle" x="38.26157860404436" y="144.65573770491804" font-size="12">BatchNormalization</text></g></g><g><g transform="translate(1195.7155903457274, 188.85245901639345)"><path d="M 0 39.34426229508197 L 76.52315720808872 51.14754098360656 V 98.85245901639345 L 0 110.65573770491804 V 39.34426229508197 z" style="fill: rgb(33, 150, 243); stroke: rgb(12, 124, 213); stroke-width: 4; stroke-linejoin: round;"></path><g></g><text text-anchor="middle" x="38.26157860404436" y="127.65573770491804" font-size="12">128</text><text text-anchor="middle" x="38.26157860404436" y="144.65573770491804" font-size="12">MaxPool</text></g></g><g><g transform="translate(1306.2387475538162, 188.85245901639345)"><path d="M 0 51.14754098360656 L 83.20287018917156 51.14754098360656 V 98.85245901639345 L 0 98.85245901639345 V 51.14754098360656 z" style="fill: rgb(63, 81, 181); stroke: rgb(50, 64, 143); stroke-width: 4; stroke-linejoin: round;"></path><g></g><text text-anchor="middle" x="41.60143509458578" y="115.85245901639345" font-size="12">256</text><text text-anchor="middle" x="41.60143509458578" y="132.85245901639345" font-size="12">Conv</text></g></g><g><g transform="translate(1423.441617742988, 188.85245901639345)"><path d="M 0 51.14754098360656 L 83.20287018917156 51.14754098360656 V 98.85245901639345 L 0 98.85245901639345 V 51.14754098360656 z" style="fill: rgb(63, 81, 181); stroke: rgb(50, 64, 143); stroke-width: 4; stroke-linejoin: round;"></path><g></g><text text-anchor="middle" x="41.60143509458578" y="115.85245901639345" font-size="12">256</text><text text-anchor="middle" x="41.60143509458578" y="132.85245901639345" font-size="12">BatchNormalization</text></g></g><g><g transform="translate(1540.6444879321593, 188.85245901639345)"><path d="M 0 51.14754098360656 L 83.20287018917156 51.14754098360656 V 98.85245901639345 L 0 98.85245901639345 V 51.14754098360656 z" style="fill: rgb(63, 81, 181); stroke: rgb(50, 64, 143); stroke-width: 4; stroke-linejoin: round;"></path><g></g><text text-anchor="middle" x="41.60143509458578" y="115.85245901639345" font-size="12">256</text><text text-anchor="middle" x="41.60143509458578" y="132.85245901639345" font-size="12">Conv</text></g></g><g><g transform="translate(1657.8473581213311, 188.85245901639345)"><path d="M 0 51.14754098360656 L 83.20287018917156 51.14754098360656 V 98.85245901639345 L 0 98.85245901639345 V 51.14754098360656 z" style="fill: rgb(63, 81, 181); stroke: rgb(50, 64, 143); stroke-width: 4; stroke-linejoin: round;"></path><g></g><text text-anchor="middle" x="41.60143509458578" y="115.85245901639345" font-size="12">256</text><text text-anchor="middle" x="41.60143509458578" y="132.85245901639345" font-size="12">BatchNormalization</text></g></g><g><g transform="translate(1892.2530984996743, 101.92622950819674)"><path d="M 0 51.14754098360656 L 83.20287018917156 57.049180327868854 V 92.95081967213115 L 0 98.85245901639345 V 51.14754098360656 z" style="fill: rgb(33, 150, 243); stroke: rgb(12, 124, 213); stroke-width: 4; stroke-linejoin: round;"></path><g></g><text text-anchor="middle" x="41.60143509458578" y="115.85245901639345" font-size="12">256</text><text text-anchor="middle" x="41.60143509458578" y="132.85245901639345" font-size="12">MaxPool</text></g></g><g><g transform="translate(2009.4559686888456, 101.92622950819674)"><path d="M 0 57.049180327868854 L 96.56229615133725 57.049180327868854 V 92.95081967213115 L 0 92.95081967213115 V 57.049180327868854 z" style="fill: rgb(63, 81, 181); stroke: rgb(50, 64, 143); stroke-width: 4; stroke-linejoin: round;"></path><g></g><text text-anchor="middle" x="48.281148075668625" y="109.95081967213115" font-size="12">512</text><text text-anchor="middle" x="48.281148075668625" y="126.95081967213115" font-size="12">Conv</text></g></g><g><g transform="translate(2140.018264840183, 101.92622950819674)"><path d="M 0 57.049180327868854 L 96.56229615133725 57.049180327868854 V 92.95081967213115 L 0 92.95081967213115 V 57.049180327868854 z" style="fill: rgb(63, 81, 181); stroke: rgb(50, 64, 143); stroke-width: 4; stroke-linejoin: round;"></path><g></g><text text-anchor="middle" x="48.281148075668625" y="109.95081967213115" font-size="12">512</text><text text-anchor="middle" x="48.281148075668625" y="126.95081967213115" font-size="12">BatchNormalization</text></g></g><g><g transform="translate(2270.58056099152, 101.92622950819674)"><path d="M 0 57.049180327868854 L 96.56229615133725 57.049180327868854 V 92.95081967213115 L 0 92.95081967213115 V 57.049180327868854 z" style="fill: rgb(63, 81, 181); stroke: rgb(50, 64, 143); stroke-width: 4; stroke-linejoin: round;"></path><g></g><text text-anchor="middle" x="48.281148075668625" y="109.95081967213115" font-size="12">512</text><text text-anchor="middle" x="48.281148075668625" y="126.95081967213115" font-size="12">Conv</text></g></g><g><g transform="translate(2401.1428571428573, 101.92622950819674)"><path d="M 0 57.049180327868854 L 96.56229615133725 57.049180327868854 V 92.95081967213115 L 0 92.95081967213115 V 57.049180327868854 z" style="fill: rgb(63, 81, 181); stroke: rgb(50, 64, 143); stroke-width: 4; stroke-linejoin: round;"></path><g></g><text text-anchor="middle" x="48.281148075668625" y="109.95081967213115" font-size="12">512</text><text text-anchor="middle" x="48.281148075668625" y="126.95081967213115" font-size="12">BatchNormalization</text></g></g><g><g transform="translate(2662.267449445532, 17.95081967213116)"><path d="M 0 57.049180327868854 L 96.56229615133725 60 V 90 L 0 92.95081967213115 V 57.049180327868854 z" style="fill: rgb(33, 150, 243); stroke: rgb(12, 124, 213); stroke-width: 4; stroke-linejoin: round;"></path><g></g><text text-anchor="middle" x="48.281148075668625" y="109.95081967213115" font-size="12">512</text><text text-anchor="middle" x="48.281148075668625" y="126.95081967213115" font-size="12">MaxPool</text></g></g><g><g transform="translate(2792.8297455968695, 17.95081967213116)"><path d="M 0 60 L 123.28114807566863 60 V 90 L 0 90 V 60 z" style="fill: rgb(63, 81, 181); stroke: rgb(50, 64, 143); stroke-width: 4; stroke-linejoin: round;"></path><g></g><text text-anchor="middle" x="61.64057403783431" y="107" font-size="12">1024</text><text text-anchor="middle" x="61.64057403783431" y="124" font-size="12">Conv</text></g></g><g><g transform="translate(2950.1108936725377, 17.95081967213116)"><path d="M 0 60 L 123.28114807566863 60 V 90 L 0 90 V 60 z" style="fill: rgb(63, 81, 181); stroke: rgb(50, 64, 143); stroke-width: 4; stroke-linejoin: round;"></path><g></g><text text-anchor="middle" x="61.64057403783431" y="107" font-size="12">1024</text><text text-anchor="middle" x="61.64057403783431" y="124" font-size="12">BatchNormalization</text></g></g><g><g transform="translate(3107.392041748207, 17.95081967213116)"><path d="M 0 60 L 123.28114807566863 60 V 90 L 0 90 V 60 z" style="fill: rgb(96, 125, 139); stroke: rgb(75, 98, 109); stroke-width: 4; stroke-linejoin: round;"></path><g></g><text text-anchor="middle" x="61.64057403783431" y="107" font-size="12">1024</text><text text-anchor="middle" x="61.64057403783431" y="124" font-size="12">Conv2DTranspose</text></g></g><g><g transform="translate(3264.673189823875, 17.95081967213116)"><path d="M 0 60 L 123.28114807566863 60 V 90 L 0 90 V 60 z" style="fill: rgb(63, 81, 181); stroke: rgb(50, 64, 143); stroke-width: 4; stroke-linejoin: round;"></path><g></g><text text-anchor="middle" x="61.64057403783431" y="107" font-size="12">1024</text><text text-anchor="middle" x="61.64057403783431" y="124" font-size="12">BatchNormalization</text></g></g><g><g transform="translate(3421.954337899544, 17.95081967213116)"><path d="M 0 60 L 123.28114807566863 57.049180327868854 V 92.95081967213115 L 0 90 V 60 z" style="fill: rgb(255, 235, 59); stroke: rgb(255, 230, 8); stroke-width: 4; stroke-linejoin: round;"></path><g></g><text text-anchor="middle" x="61.64057403783431" y="109.95081967213115" font-size="12">1024</text><text text-anchor="middle" x="61.64057403783431" y="126.95081967213115" font-size="12">DeConv</text></g></g><g><g transform="translate(3579.235485975212, 101.92622950819674)"><path d="M 150 92.95081967213115 L 0 176.92622950819674 V 141.02459016393442 L 117.93557833089311 75 L 0 8.975409836065566 V -26.926229508196727 L 150 57.049180327868854 V 92.95081967213115 z" style="fill: rgb(121, 85, 72); stroke: rgb(89, 63, 53); stroke-width: 4; stroke-linejoin: round;"></path><g></g><text text-anchor="middle" x="75" y="193.92622950819674" font-size="12">1536</text><text text-anchor="middle" x="75" y="210.92622950819674" font-size="12">Conc.</text></g></g><g><g transform="translate(3763.235485975212, 101.92622950819674)"><path d="M 0 57.049180327868854 L 96.56229615133725 57.049180327868854 V 92.95081967213115 L 0 92.95081967213115 V 57.049180327868854 z" style="fill: rgb(96, 125, 139); stroke: rgb(75, 98, 109); stroke-width: 4; stroke-linejoin: round;"></path><g></g><text text-anchor="middle" x="48.281148075668625" y="109.95081967213115" font-size="12">512</text><text text-anchor="middle" x="48.281148075668625" y="126.95081967213115" font-size="12">Conv2DTranspose</text></g></g><g><g transform="translate(3893.7977821265495, 101.92622950819674)"><path d="M 0 57.049180327868854 L 96.56229615133725 57.049180327868854 V 92.95081967213115 L 0 92.95081967213115 V 57.049180327868854 z" style="fill: rgb(63, 81, 181); stroke: rgb(50, 64, 143); stroke-width: 4; stroke-linejoin: round;"></path><g></g><text text-anchor="middle" x="48.281148075668625" y="109.95081967213115" font-size="12">512</text><text text-anchor="middle" x="48.281148075668625" y="126.95081967213115" font-size="12">BatchNormalization</text></g></g><g><g transform="translate(4024.3600782778867, 101.92622950819674)"><path d="M 0 57.049180327868854 L 96.56229615133725 57.049180327868854 V 92.95081967213115 L 0 92.95081967213115 V 57.049180327868854 z" style="fill: rgb(96, 125, 139); stroke: rgb(75, 98, 109); stroke-width: 4; stroke-linejoin: round;"></path><g></g><text text-anchor="middle" x="48.281148075668625" y="109.95081967213115" font-size="12">512</text><text text-anchor="middle" x="48.281148075668625" y="126.95081967213115" font-size="12">Conv2DTranspose</text></g></g><g><g transform="translate(4154.922374429225, 101.92622950819674)"><path d="M 0 57.049180327868854 L 96.56229615133725 57.049180327868854 V 92.95081967213115 L 0 92.95081967213115 V 57.049180327868854 z" style="fill: rgb(63, 81, 181); stroke: rgb(50, 64, 143); stroke-width: 4; stroke-linejoin: round;"></path><g></g><text text-anchor="middle" x="48.281148075668625" y="109.95081967213115" font-size="12">512</text><text text-anchor="middle" x="48.281148075668625" y="126.95081967213115" font-size="12">BatchNormalization</text></g></g><g><g transform="translate(4285.484670580561, 101.92622950819674)"><path d="M 0 57.049180327868854 L 96.56229615133725 51.14754098360656 V 98.85245901639345 L 0 92.95081967213115 V 57.049180327868854 z" style="fill: rgb(255, 235, 59); stroke: rgb(255, 230, 8); stroke-width: 4; stroke-linejoin: round;"></path><g></g><text text-anchor="middle" x="48.281148075668625" y="115.85245901639345" font-size="12">512</text><text text-anchor="middle" x="48.281148075668625" y="132.85245901639345" font-size="12">DeConv</text></g></g><g><g transform="translate(4416.0469667318985, 188.85245901639345)"><path d="M 109.92172211350294 98.85245901639345 L 0 192.827868852459 V 145.1229508196721 L 80.93466172833814 75.92945694400083 L 0 11.92622950819674 V -35.77868852459015 L 109.92172211350294 51.14754098360656 V 98.85245901639345 z" style="fill: rgb(121, 85, 72); stroke: rgb(89, 63, 53); stroke-width: 4; stroke-linejoin: round;"></path><g></g><text text-anchor="middle" x="54.96086105675147" y="209.827868852459" font-size="12">768</text><text text-anchor="middle" x="54.96086105675147" y="226.827868852459" font-size="12">Conc.</text></g></g><g><g transform="translate(4559.968688845402, 188.85245901639345)"><path d="M 0 51.14754098360656 L 83.20287018917156 51.14754098360656 V 98.85245901639345 L 0 98.85245901639345 V 51.14754098360656 z" style="fill: rgb(96, 125, 139); stroke: rgb(75, 98, 109); stroke-width: 4; stroke-linejoin: round;"></path><g></g><text text-anchor="middle" x="41.60143509458578" y="115.85245901639345" font-size="12">256</text><text text-anchor="middle" x="41.60143509458578" y="132.85245901639345" font-size="12">Conv2DTranspose</text></g></g><g><g transform="translate(4677.171559034573, 188.85245901639345)"><path d="M 0 51.14754098360656 L 83.20287018917156 51.14754098360656 V 98.85245901639345 L 0 98.85245901639345 V 51.14754098360656 z" style="fill: rgb(63, 81, 181); stroke: rgb(50, 64, 143); stroke-width: 4; stroke-linejoin: round;"></path><g></g><text text-anchor="middle" x="41.60143509458578" y="115.85245901639345" font-size="12">256</text><text text-anchor="middle" x="41.60143509458578" y="132.85245901639345" font-size="12">BatchNormalization</text></g></g><g><g transform="translate(4794.374429223744, 188.85245901639345)"><path d="M 0 51.14754098360656 L 83.20287018917156 51.14754098360656 V 98.85245901639345 L 0 98.85245901639345 V 51.14754098360656 z" style="fill: rgb(96, 125, 139); stroke: rgb(75, 98, 109); stroke-width: 4; stroke-linejoin: round;"></path><g></g><text text-anchor="middle" x="41.60143509458578" y="115.85245901639345" font-size="12">256</text><text text-anchor="middle" x="41.60143509458578" y="132.85245901639345" font-size="12">Conv2DTranspose</text></g></g><g><g transform="translate(4911.577299412916, 188.85245901639345)"><path d="M 0 51.14754098360656 L 83.20287018917156 51.14754098360656 V 98.85245901639345 L 0 98.85245901639345 V 51.14754098360656 z" style="fill: rgb(63, 81, 181); stroke: rgb(50, 64, 143); stroke-width: 4; stroke-linejoin: round;"></path><g></g><text text-anchor="middle" x="41.60143509458578" y="115.85245901639345" font-size="12">256</text><text text-anchor="middle" x="41.60143509458578" y="132.85245901639345" font-size="12">BatchNormalization</text></g></g><g><g transform="translate(5028.780169602087, 188.85245901639345)"><path d="M 0 51.14754098360656 L 83.20287018917156 39.34426229508197 V 110.65573770491804 L 0 98.85245901639345 V 51.14754098360656 z" style="fill: rgb(255, 235, 59); stroke: rgb(255, 230, 8); stroke-width: 4; stroke-linejoin: round;"></path><g></g><text text-anchor="middle" x="41.60143509458578" y="127.65573770491804" font-size="12">256</text><text text-anchor="middle" x="41.60143509458578" y="144.65573770491804" font-size="12">DeConv</text></g></g><g><g transform="translate(5145.983039791258, 281.6803278688525)"><path d="M 89.8825831702544 110.65573770491804 L 0 214.63114754098362 V 143.31967213114754 L 57.313717131886506 77.01965028232772 L 0 17.827868852459005 V -53.483606557377065 L 89.8825831702544 39.34426229508197 V 110.65573770491804 z" style="fill: rgb(121, 85, 72); stroke: rgb(89, 63, 53); stroke-width: 4; stroke-linejoin: round;"></path><g></g><text text-anchor="middle" x="44.9412915851272" y="231.63114754098362" font-size="12">384</text><text text-anchor="middle" x="44.9412915851272" y="248.63114754098362" font-size="12">Conc.</text></g></g><g><g transform="translate(5269.865622961513, 281.6803278688525)"><path d="M 0 39.34426229508197 L 76.52315720808872 39.34426229508197 V 110.65573770491804 L 0 110.65573770491804 V 39.34426229508197 z" style="fill: rgb(96, 125, 139); stroke: rgb(75, 98, 109); stroke-width: 4; stroke-linejoin: round;"></path><g></g><text text-anchor="middle" x="38.26157860404436" y="127.65573770491804" font-size="12">128</text><text text-anchor="middle" x="38.26157860404436" y="144.65573770491804" font-size="12">Conv2DTranspose</text></g></g><g><g transform="translate(5380.388780169601, 281.6803278688525)"><path d="M 0 39.34426229508197 L 76.52315720808872 39.34426229508197 V 110.65573770491804 L 0 110.65573770491804 V 39.34426229508197 z" style="fill: rgb(63, 81, 181); stroke: rgb(50, 64, 143); stroke-width: 4; stroke-linejoin: round;"></path><g></g><text text-anchor="middle" x="38.26157860404436" y="127.65573770491804" font-size="12">128</text><text text-anchor="middle" x="38.26157860404436" y="144.65573770491804" font-size="12">BatchNormalization</text></g></g><g><g transform="translate(5490.911937377689, 281.6803278688525)"><path d="M 0 39.34426229508197 L 76.52315720808872 39.34426229508197 V 110.65573770491804 L 0 110.65573770491804 V 39.34426229508197 z" style="fill: rgb(96, 125, 139); stroke: rgb(75, 98, 109); stroke-width: 4; stroke-linejoin: round;"></path><g></g><text text-anchor="middle" x="38.26157860404436" y="127.65573770491804" font-size="12">128</text><text text-anchor="middle" x="38.26157860404436" y="144.65573770491804" font-size="12">Conv2DTranspose</text></g></g><g><g transform="translate(5601.435094585778, 281.6803278688525)"><path d="M 0 39.34426229508197 L 76.52315720808872 39.34426229508197 V 110.65573770491804 L 0 110.65573770491804 V 39.34426229508197 z" style="fill: rgb(63, 81, 181); stroke: rgb(50, 64, 143); stroke-width: 4; stroke-linejoin: round;"></path><g></g><text text-anchor="middle" x="38.26157860404436" y="127.65573770491804" font-size="12">128</text><text text-anchor="middle" x="38.26157860404436" y="144.65573770491804" font-size="12">BatchNormalization</text></g></g><g><g transform="translate(5711.958251793866, 281.6803278688525)"><path d="M 0 39.34426229508197 L 76.52315720808872 15.737704918032783 V 134.2622950819672 L 0 110.65573770491804 V 39.34426229508197 z" style="fill: rgb(255, 235, 59); stroke: rgb(255, 230, 8); stroke-width: 4; stroke-linejoin: round;"></path><g></g><text text-anchor="middle" x="38.26157860404436" y="151.2622950819672" font-size="12">128</text><text text-anchor="middle" x="38.26157860404436" y="168.2622950819672" font-size="12">DeConv</text></g></g><g><g transform="translate(5822.4814090019545, 386.3114754098361)"><path d="M 79.86301369863014 134.2622950819672 L 0 248.2377049180328 V 129.71311475409837 L 36.562707058877926 77.53314647144516 L 0 29.63114754098362 V -88.8934426229508 L 79.86301369863014 15.737704918032783 V 134.2622950819672 z" style="fill: rgb(121, 85, 72); stroke: rgb(89, 63, 53); stroke-width: 4; stroke-linejoin: round;"></path><g></g><text text-anchor="middle" x="39.93150684931507" y="265.2377049180328" font-size="12">192</text><text text-anchor="middle" x="39.93150684931507" y="282.2377049180328" font-size="12">Conc.</text></g></g><g><g transform="translate(5936.344422700585, 386.3114754098361)"><path d="M 0 15.737704918032783 L 73.1833007175473 15.737704918032783 V 134.2622950819672 L 0 134.2622950819672 V 15.737704918032783 z" style="fill: rgb(96, 125, 139); stroke: rgb(75, 98, 109); stroke-width: 4; stroke-linejoin: round;"></path><g></g><text text-anchor="middle" x="36.59165035877365" y="151.2622950819672" font-size="12">64</text><text text-anchor="middle" x="36.59165035877365" y="168.2622950819672" font-size="12">Conv2DTranspose</text></g></g><g><g transform="translate(6043.527723418132, 386.3114754098361)"><path d="M 0 15.737704918032783 L 73.1833007175473 15.737704918032783 V 134.2622950819672 L 0 134.2622950819672 V 15.737704918032783 z" style="fill: rgb(63, 81, 181); stroke: rgb(50, 64, 143); stroke-width: 4; stroke-linejoin: round;"></path><g></g><text text-anchor="middle" x="36.59165035877365" y="151.2622950819672" font-size="12">64</text><text text-anchor="middle" x="36.59165035877365" y="168.2622950819672" font-size="12">BatchNormalization</text></g></g><g><g transform="translate(6150.7110241356795, 386.3114754098361)"><path d="M 0 15.737704918032783 L 73.1833007175473 15.737704918032783 V 134.2622950819672 L 0 134.2622950819672 V 15.737704918032783 z" style="fill: rgb(96, 125, 139); stroke: rgb(75, 98, 109); stroke-width: 4; stroke-linejoin: round;"></path><g></g><text text-anchor="middle" x="36.59165035877365" y="151.2622950819672" font-size="12">64</text><text text-anchor="middle" x="36.59165035877365" y="168.2622950819672" font-size="12">Conv2DTranspose</text></g></g><g><g transform="translate(6257.894324853227, 386.3114754098361)"><path d="M 0 15.737704918032783 L 73.1833007175473 15.737704918032783 V 134.2622950819672 L 0 134.2622950819672 V 15.737704918032783 z" style="fill: rgb(63, 81, 181); stroke: rgb(50, 64, 143); stroke-width: 4; stroke-linejoin: round;"></path><g></g><text text-anchor="middle" x="36.59165035877365" y="151.2622950819672" font-size="12">64</text><text text-anchor="middle" x="36.59165035877365" y="168.2622950819672" font-size="12">BatchNormalization</text></g></g><g><g transform="translate(6365.077625570774, 386.3114754098361)"><path d="M 0 15.737704918032783 L 70.15655577299412 15.737704918032783 V 134.2622950819672 L 0 134.2622950819672 V 15.737704918032783 z" style="fill: rgb(63, 81, 181); stroke: rgb(50, 64, 143); stroke-width: 4; stroke-linejoin: round;"></path><g></g><text text-anchor="middle" x="35.07827788649706" y="151.2622950819672" font-size="12">6</text><text text-anchor="middle" x="35.07827788649706" y="168.2622950819672" font-size="12">Conv</text></g><g transform="translate(6469.234181343768, 402.04918032786884)"><rect x="0" y="0" width="118.52459016393443" height="118.52459016393443" style="stroke: lightgrey; stroke-linejoin: round; stroke-width: 2; fill-opacity: 0; stroke-dasharray: 4;"></rect></g></g><g><g transform="translate(428.7332028701892, 386.3114754098361)"><path d="M 0 15.737704918032783 L 73.1833007175473 -88.8934426229508 V 29.63114754098362 L 39.67868497846772 77.53314647144516 L 73.1833007175473 129.71311475409837 V 248.2377049180328 L 0 134.2622950819672 V 15.737704918032783 z" style="fill: rgb(103, 58, 183); stroke: rgb(81, 46, 144); stroke-width: 4; stroke-linejoin: round;"></path><g></g><text text-anchor="middle" x="36.59165035877365" y="265.2377049180328" font-size="12">64</text><text text-anchor="middle" x="36.59165035877365" y="282.2377049180328" font-size="12">Split</text></g></g><g><g transform="translate(1085.1924331376388, 281.6803278688525)"><path d="M 0 39.34426229508197 L 76.52315720808872 -53.483606557377065 V 17.827868852459005 L 27.728091116633557 77.01965028232772 L 76.52315720808872 143.31967213114754 V 214.63114754098362 L 0 110.65573770491804 V 39.34426229508197 z" style="fill: rgb(103, 58, 183); stroke: rgb(81, 46, 144); stroke-width: 4; stroke-linejoin: round;"></path><g></g><text text-anchor="middle" x="38.26157860404436" y="231.63114754098362" font-size="12">128</text><text text-anchor="middle" x="38.26157860404436" y="248.63114754098362" font-size="12">Split</text></g></g><g><g transform="translate(1775.0502283105025, 188.85245901639345)"><path d="M 0 51.14754098360656 L 83.20287018917156 -35.77868852459015 V 11.92622950819674 L 21.941128432305334 75.92945694400083 L 83.20287018917156 145.1229508196721 V 192.827868852459 L 0 98.85245901639345 V 51.14754098360656 z" style="fill: rgb(103, 58, 183); stroke: rgb(81, 46, 144); stroke-width: 4; stroke-linejoin: round;"></path><g></g><text text-anchor="middle" x="41.60143509458578" y="209.827868852459" font-size="12">256</text><text text-anchor="middle" x="41.60143509458578" y="226.827868852459" font-size="12">Split</text></g></g><g><g transform="translate(2531.7051532941946, 101.92622950819674)"><path d="M 0 57.049180327868854 L 96.56229615133725 -26.926229508196727 V 8.975409836065566 L 20.641427874224348 75.00000000000001 L 96.56229615133725 141.02459016393442 V 176.92622950819674 L 0 92.95081967213115 V 57.049180327868854 z" style="fill: rgb(103, 58, 183); stroke: rgb(81, 46, 144); stroke-width: 4; stroke-linejoin: round;"></path><g></g><text text-anchor="middle" x="48.281148075668625" y="193.92622950819674" font-size="12">512</text><text text-anchor="middle" x="48.281148075668625" y="210.92622950819674" font-size="12">Split</text></g></g></g></g></svg>