<svg version='1.1' baseProfile='full' xmlns='http://www.w3.org/2000/svg' width='1893.03125' height='60'><g transform='translate(5, 5)'><g transform='scale(1) translate(1.03125, 0)'><g><text text-anchor="middle" x="15" y="47" style="fill: black;">Conv</text><rect x="10" y="0" width="10" height="30" style="fill: rgb(63, 81, 181); stroke: rgb(50, 64, 143); stroke-linejoin: round; stroke-width: 2;"></rect></g><g><text text-anchor="middle" x="145" y="47" style="fill: black;">DeConv</text><rect x="140" y="0" width="10" height="30" style="fill: rgb(255, 235, 59); stroke: rgb(255, 230, 8); stroke-linejoin: round; stroke-width: 2;"></rect></g><g><text text-anchor="middle" x="275" y="47" style="fill: black;">Conc.</text><rect x="270" y="0" width="10" height="30" style="fill: rgb(121, 85, 72); stroke: rgb(89, 63, 53); stroke-linejoin: round; stroke-width: 2;"></rect></g><g><text text-anchor="middle" x="405" y="47" style="fill: black;">MaxPool</text><rect x="400" y="0" width="10" height="30" style="fill: rgb(33, 150, 243); stroke: rgb(12, 124, 213); stroke-linejoin: round; stroke-width: 2;"></rect></g><g><text text-anchor="middle" x="535" y="47" style="fill: black;">ZeroPadding2D</text><rect x="530" y="0" width="10" height="30" style="fill: rgb(255, 152, 0); stroke: rgb(204, 122, 0); stroke-linejoin: round; stroke-width: 2;"></rect></g><g><text text-anchor="middle" x="665" y="47" style="fill: black;">BatchNormalization</text><rect x="660" y="0" width="10" height="30" style="fill: rgb(63, 81, 181); stroke: rgb(50, 64, 143); stroke-linejoin: round; stroke-width: 2;"></rect></g><g><text text-anchor="middle" x="795" y="47" style="fill: black;">ReLU</text><rect x="790" y="0" width="10" height="30" style="fill: rgb(76, 175, 80); stroke: rgb(61, 139, 64); stroke-linejoin: round; stroke-width: 2;"></rect></g><g><text text-anchor="middle" x="925" y="47" style="fill: black;">DepthwiseConv2D</text><rect x="920" y="0" width="10" height="30" style="fill: rgb(3, 169, 244); stroke: rgb(2, 134, 194); stroke-linejoin: round; stroke-width: 2;"></rect></g><g><text text-anchor="middle" x="1055" y="47" style="fill: black;">Add</text><rect x="1050" y="0" width="10" height="30" style="fill: rgb(233, 30, 99); stroke: rgb(193, 19, 78); stroke-linejoin: round; stroke-width: 2;"></rect></g><g><text text-anchor="middle" x="1185" y="47" style="fill: black;">GlobalAveragePooling2D</text><rect x="1180" y="0" width="10" height="30" style="fill: rgb(0, 188, 212); stroke: rgb(0, 188, 212); stroke-linejoin: round; stroke-width: 2;"></rect></g><g><text text-anchor="middle" x="1315" y="47" style="fill: black;">Dense</text><rect x="1310" y="0" width="10" height="30" style="fill: rgb(255, 193, 7); stroke: rgb(255, 193, 7); stroke-linejoin: round; stroke-width: 2;"></rect></g><g><text text-anchor="middle" x="1445" y="47" style="fill: black;">Split</text><rect x="1440" y="0" width="10" height="30" style="fill: rgb(103, 58, 183); stroke: rgb(81, 46, 144); stroke-linejoin: round; stroke-width: 2;"></rect></g><g><text text-anchor="middle" x="1575" y="47" style="fill: black;">Group</text><rect x="1570" y="0" width="10" height="30" style="fill: rgb(96, 125, 139); stroke: rgb(75, 98, 109); stroke-linejoin: round; stroke-width: 2;"></rect></g><g><text text-anchor="middle" x="1705" y="47" style="fill: black;">Conv2DTranspose</text><rect x="1700" y="0" width="10" height="30" style="fill: rgb(96, 125, 139); stroke: rgb(75, 98, 109); stroke-linejoin: round; stroke-width: 2;"></rect></g><g><rect x="1830" y="0" width="10" height="30" style="fill: rgb(113, 164, 54); stroke: rgb(139, 195, 74); stroke-linejoin: round; stroke-width: 6;"></rect><text text-anchor="middle" x="1847.5" y="21" style="fill: black;">=</text><g transform="translate(0, -15)"><text text-anchor="middle" x="1856" y="62" style="fill: black;">2-Conv</text><g transform="translate(1855, 0)"><polyline points="10,30 13.5,30 17,30 " style="fill: none; stroke: black;"></polyline><g transform="translate(0, 15)"><path d="M 0 0 L 10 0 V 30 L 0 30 V 0 z" style="fill: rgb(63, 81, 181); stroke: rgb(50, 64, 143); stroke-linejoin: round; stroke-width: 2;"></path></g></g><g transform="translate(1855, 0)"><g transform="translate(17, 15)"><path d="M 0 0 L 10 0 V 30 L 0 30 V 0 z" style="fill: rgb(63, 81, 181); stroke: rgb(50, 64, 143); stroke-linejoin: round; stroke-width: 2;"></path></g></g></g></g></g></g></svg>